<svg xmlns="http://www.w3.org/2000/svg" version="1.1" xmlns:xlink="http://www.w3.org/1999/xlink" xmlns:svgjs="http://svgjs.dev/svgjs" width="100%" height="100%" viewBox="0 0 1000 600"><rect width="800" height="400" x="0" y="0" fill="transparent"/><g><circle r="166.66666666666666" cx="347.9473215738932" cy="370.1695336715194" fill="a" transform="matrix(0.6895386858250083,0,0,0.6895386858250082,0,44.753795694211775)"/><path d="M276.4396552345799 445.06491949885867L276.4396552345799 445.06491949885867L276.4396552345799 295.16954892102046Q278.66323403023716 295.16954892102046 283.2411903742375 295.43114642639193Q287.84530646877494 295.7189036823005 289.8857670106722 295.98050118767196L289.8857670106722 295.98050118767196Q306.41872935014754 297.9163227274207 315.75776029190814 304.8748163703011Q325.09679123366874 311.8071502626444 328.91611481209185 321.27697995709076Q332.73543839051496 330.7468096515371 332.73543839051496 340.21663934598337L332.73543839051496 340.21663934598337Q332.73543839051496 348.03840475658967 328.6806770572575 356.3572054274016Q324.62591572400015 364.7021658487507 317.2750258230625 371.2159437324997L317.2750258230625 371.2159437324997Q326.8494945196574 376.6571718442258 331.9506458744006 384.8713335128891Q337.0517972291438 393.11165493208966 337.0517972291438 403.7848331512446L337.0517972291438 403.7848331512446Q337.0517972291438 412.9669055897824 332.9708761453493 421.99201952509725Q328.86379531101755 430.990973709875 319.0800486101255 437.2954735893268Q309.27014215869633 443.59997346877867 292.08318605579234 444.6986829913387L292.08318605579234 444.6986829913387Q290.69671927732367 444.8033219934873 287.5313894623292 444.8818012450987Q284.36605964733474 444.9864402472473 281.14841033126595 445.0387597483216Q277.93076101519716 445.06491949885867 276.4396552345799 445.06491949885867ZM293.286534580501 313.0104987873531L293.286534580501 366.3502301325908Q298.8847211954499 367.2658214013909 304.11667130287884 363.4988173240421Q309.37478116084486 359.73181324669326 312.7755487306737 353.1395561113328Q316.17631630050244 346.57345872650956 316.17631630050244 339.1179298234233L316.17631630050244 339.1179298234233Q316.17631630050244 329.56962087736554 312.4093122231536 323.8667952602681Q308.6423081458048 318.1639696431705 303.30571903622734 315.57415433999324Q297.9691299266499 313.0104987873531 293.286534580501 313.0104987873531L293.286534580501 313.0104987873531ZM293.286534580501 380.79041242909454L293.286534580501 427.5902061400461Q303.9335530491188 427.5902061400461 311.51988070489074 421.33802576166863Q319.13236811119975 415.08584538329103 319.13236811119975 403.7848331512446L319.13236811119975 403.7848331512446Q319.13236811119975 397.06177726319845 315.99319804674246 391.48975039878667Q312.8540279822851 385.9438832849121 307.12504261465045 382.9093522226033Q301.36989749647864 379.8748211602946 293.286534580501 380.79041242909454L293.286534580501 380.79041242909454ZM382.8575204196839 445.16955850100726L382.8575204196839 445.16955850100726Q374.5648794994091 445.16955850100726 367.08319084578574 442.76286145158997Q359.57534244162525 440.3823241527099 354.16027408043635 436.69379932697245L354.16027408043635 436.69379932697245L362.1651577448025 421.4426647638172Q366.76927383934 424.0063203164574 371.8181056930089 426.1775796110403Q376.8669375466778 428.32267915508623 382.8575204196839 428.32267915508623L382.8575204196839 428.32267915508623Q390.2084103206215 428.32267915508623 395.7804371850333 424.18943857021736Q401.3524640494451 420.0561979853485 401.3524640494451 411.03108405003366L401.3524640494451 411.03108405003366Q401.3524640494451 404.96202192541614 397.899376978542 397.84656977931286Q394.4462899076389 390.73111763320946 385.70893322823264 379.8748211602946L385.70893322823264 379.8748211602946L373.649288230609 364.8852841025107Q364.6503340458313 353.66275112207563 360.8833299684825 344.5068384340751Q357.0901661405965 335.3509257460745 357.0901661405965 327.16292382794825L357.0901661405965 327.16292382794825Q357.0901661405965 313.37673529487313 365.9321618221514 304.3254616090211Q374.7479977531691 295.24802817263196 390.31304932277004 295.24802817263196L390.31304932277004 295.24802817263196Q396.5652297011476 295.24802817263196 402.8697295805995 296.8699327059349Q409.1480697095142 298.46567748870075 415.13865258252025 301.9710840606781L415.13865258252025 301.9710840606781L407.6046444278226 316.22814810342186Q404.2823561096053 314.29232656367316 400.5153520322565 312.8797000346674Q396.7483479549076 311.44091375512437 392.1442318603702 311.44091375512437L392.1442318603702 311.44091375512437Q384.505584703524 311.44091375512437 379.8753088584494 315.75727259375327Q375.2188732628377 320.09979118291926 375.2188732628377 327.81691759137686L375.2188732628377 327.81691759137686Q375.2188732628377 332.0547971783943 377.28549355527207 337.10362903206317Q379.3521138477065 342.1524608857321 385.60429422608405 350.2619835522469L385.60429422608405 350.2619835522469L403.18364658704513 372.89016776687697Q409.98518172670276 381.70600369789463 414.72009657392596 390.02480436870667Q419.4550114211491 398.3436050395186 419.4550114211491 409.67077702210213L419.4550114211491 409.67077702210213Q419.4550114211491 420.7101917487771 414.72009657392596 428.6627559120691Q409.98518172670276 436.61532007536107 401.7448603075022 440.8793594129156Q393.5306986388389 445.16955850100726 382.8575204196839 445.16955850100726Z " fill="#ffffff" transform="matrix(0.6895386858250083,0,0,0.6895386858250082,0,44.753795694211775)"/><path d="M597.9473304054784 445.06491949885867L597.9473304054784 445.06491949885867L597.9473304054784 295.16954892102046Q600.1709092011356 295.16954892102046 604.7488655451359 295.43114642639193Q609.3529816396733 295.7189036823005 611.3934421815707 295.98050118767196L611.3934421815707 295.98050118767196Q627.9264045210459 297.9163227274207 637.2654354628065 304.8748163703011Q646.6044664045671 311.8071502626444 650.4237899829902 321.27697995709076Q654.2431135614133 330.7468096515371 654.2431135614133 340.21663934598337L654.2431135614133 340.21663934598337Q654.2431135614133 348.03840475658967 650.188352228156 356.3572054274016Q646.1335908948986 364.7021658487507 638.7827009939609 371.2159437324997L638.7827009939609 371.2159437324997Q648.3571696905558 376.6571718442258 653.458321045299 384.8713335128891Q658.5594724000422 393.11165493208966 658.5594724000422 403.7848331512446L658.5594724000422 403.7848331512446Q658.5594724000422 412.9669055897824 654.4785513162476 421.99201952509725Q650.3714704819159 430.990973709875 640.5877237810239 437.2954735893268Q630.7778173295947 443.59997346877867 613.5908612266908 444.6986829913387L613.5908612266908 444.6986829913387Q612.204394448222 444.8033219934873 609.0390646332276 444.8818012450987Q605.8737348182331 444.9864402472473 602.6560855021644 445.0387597483216Q599.4384361860955 445.06491949885867 597.9473304054784 445.06491949885867ZM614.7942097513994 313.0104987873531L614.7942097513994 366.3502301325908Q620.3923963663483 367.2658214013909 625.6243464737772 363.4988173240421Q630.8824563317432 359.73181324669326 634.283223901572 353.1395561113328Q637.6839914714009 346.57345872650956 637.6839914714009 339.1179298234233L637.6839914714009 339.1179298234233Q637.6839914714009 329.56962087736554 633.9169873940521 323.8667952602681Q630.1499833167032 318.1639696431705 624.8133942071257 315.57415433999324Q619.4768050975483 313.0104987873531 614.7942097513994 313.0104987873531L614.7942097513994 313.0104987873531ZM614.7942097513994 380.79041242909454L614.7942097513994 427.5902061400461Q625.4412282200173 427.5902061400461 633.0275558757892 421.33802576166863Q640.6400432820982 415.08584538329103 640.6400432820982 403.7848331512446L640.6400432820982 403.7848331512446Q640.6400432820982 397.06177726319845 637.5008732176409 391.48975039878667Q634.3617031531835 385.9438832849121 628.6327177855488 382.9093522226033Q622.8775726673771 379.8748211602946 614.7942097513994 380.79041242909454L614.7942097513994 380.79041242909454ZM710.2511394614398 445.16955850100726L710.2511394614398 445.16955850100726Q694.7122476423759 445.16955850100726 684.4837851823524 432.5605587421036Q674.2814824728661 419.9777187337371 674.2814824728661 394.5766009621698L674.2814824728661 394.5766009621698Q674.2814824728661 369.20164294113954 684.4837851823524 356.59264318223586Q694.7122476423759 344.0098031738694 710.2511394614398 344.0098031738694L710.2511394614398 344.0098031738694Q725.7900312805036 344.0098031738694 736.0446534910643 356.59264318223586Q746.299275701625 369.20164294113954 746.299275701625 394.5766009621698L746.299275701625 394.5766009621698Q746.299275701625 419.9777187337371 736.0446534910643 432.5605587421036Q725.7900312805036 445.16955850100726 710.2511394614398 445.16955850100726ZM710.2511394614398 429.08131192066344L710.2511394614398 429.08131192066344Q715.2214920634973 429.08131192066344 719.4332118999776 425.94214185620604Q723.6710914869949 422.80297179174875 726.2609067901723 415.3212831381254Q728.8245623428124 407.81343473396487 728.8245623428124 394.5766009621698L728.8245623428124 394.5766009621698Q728.8245623428124 381.3397671903746 726.2609067901723 373.83191878621415Q723.6710914869949 366.3502301325908 719.4332118999776 363.2110600681334Q715.2214920634973 360.0980497542132 710.2511394614398 360.0980497542132L710.2511394614398 360.0980497542132Q705.385425861531 360.0980497542132 701.0952267734392 363.2110600681334Q696.8311874358847 366.3502301325908 694.2413721327074 373.83191878621415Q691.6777165800672 381.3397671903746 691.6777165800672 394.5766009621698L691.6777165800672 394.5766009621698Q691.6777165800672 407.81343473396487 694.2413721327074 415.3212831381254Q696.8311874358847 422.80297179174875 701.0952267734392 425.94214185620604Q705.385425861531 429.08131192066344 710.2511394614398 429.08131192066344ZM795.5057664619939 445.16955850100726L795.5057664619939 445.16955850100726Q779.96687464293 445.16955850100726 769.7384121829065 432.5605587421036Q759.5361094734202 419.9777187337371 759.5361094734202 394.5766009621698L759.5361094734202 394.5766009621698Q759.5361094734202 369.20164294113954 769.7384121829065 356.59264318223586Q779.96687464293 344.0098031738694 795.5057664619939 344.0098031738694L795.5057664619939 344.0098031738694Q811.0446582810577 344.0098031738694 821.2992804916183 356.59264318223586Q831.553902702179 369.20164294113954 831.553902702179 394.5766009621698L831.553902702179 394.5766009621698Q831.553902702179 419.9777187337371 821.2992804916183 432.5605587421036Q811.0446582810577 445.16955850100726 795.5057664619939 445.16955850100726ZM795.5057664619939 429.08131192066344L795.5057664619939 429.08131192066344Q800.4761190640513 429.08131192066344 804.6878389005316 425.94214185620604Q808.925718487549 422.80297179174875 811.5155337907263 415.3212831381254Q814.0791893433665 407.81343473396487 814.0791893433665 394.5766009621698L814.0791893433665 394.5766009621698Q814.0791893433665 381.3397671903746 811.5155337907263 373.83191878621415Q808.925718487549 366.3502301325908 804.6878389005316 363.2110600681334Q800.4761190640513 360.0980497542132 795.5057664619939 360.0980497542132L795.5057664619939 360.0980497542132Q790.640052862085 360.0980497542132 786.3498537739932 363.2110600681334Q782.0858144364387 366.3502301325908 779.4959991332614 373.83191878621415Q776.9323435806213 381.3397671903746 776.9323435806213 394.5766009621698L776.9323435806213 394.5766009621698Q776.9323435806213 407.81343473396487 779.4959991332614 415.3212831381254Q782.0858144364387 422.80297179174875 786.3498537739932 425.94214185620604Q790.640052862085 429.08131192066344 795.5057664619939 429.08131192066344ZM864.489028628444 443.4168552150186L847.8252675362829 443.4168552150186L847.8252675362829 296.9222522070092L864.489028628444 296.9222522070092L864.489028628444 390.91423588696955L864.672146882204 390.80959688482096L892.2445239483543 345.73634670932086L910.0854738146869 345.73634670932086L880.6557544603993 393.29477318584964L915.0558264167444 443.4168552150186L894.4681027440116 443.4168552150186L864.489028628444 399.0760780545586L864.489028628444 443.4168552150186ZM950.1883713881294 445.16955850100726L950.1883713881294 445.16955850100726Q941.9218902183919 445.16955850100726 934.4140418142314 442.76286145158997Q926.9323531606079 440.3823241527099 921.4911250488819 436.69379932697245L921.4911250488819 436.69379932697245L929.4960087132482 421.4426647638172Q934.1001248077856 424.0063203164574 939.1489566614545 426.1775796110403Q944.2239482656605 428.32267915508623 950.1883713881294 428.32267915508623L950.1883713881294 428.32267915508623Q957.5392612890671 428.32267915508623 963.1112881534789 424.18943857021736Q968.6833150178905 420.0561979853485 968.6833150178905 411.03108405003366L968.6833150178905 411.03108405003366Q968.6833150178905 404.96202192541614 965.2302279469876 397.84656977931286Q961.7771408760846 390.73111763320946 953.0397841966783 379.8748211602946L953.0397841966783 379.8748211602946L941.0062989495917 364.8852841025107Q931.9811850142769 353.66275112207563 928.2141809369281 344.5068384340751Q924.4471768595793 335.3509257460745 924.4471768595793 327.16292382794825L924.4471768595793 327.16292382794825Q924.4471768595793 313.37673529487313 933.2630127905969 304.3254616090211Q942.1050084721518 295.24802817263196 957.6439002912156 295.24802817263196L957.6439002912156 295.24802817263196Q963.8960806695933 295.24802817263196 970.200580549045 296.8699327059349Q976.5050804284969 298.46567748870075 982.4695035509659 301.9710840606781L982.4695035509659 301.9710840606781L974.9354953962683 316.22814810342186Q971.6132070780508 314.29232656367316 967.8462030007021 312.8797000346674Q964.0791989233533 311.44091375512437 959.4750828288157 311.44091375512437L959.4750828288157 311.44091375512437Q951.8364356719695 311.44091375512437 947.206159826895 315.75727259375327Q942.5497242312833 320.09979118291926 942.5497242312833 327.81691759137686L942.5497242312833 327.81691759137686Q942.5497242312833 332.0547971783943 944.6163445237177 337.10362903206317Q946.7091245666892 342.1524608857321 952.9613049450669 350.2619835522469L952.9613049450669 350.2619835522469L970.5144975554908 372.89016776687697Q977.3160326951484 381.70600369789463 982.0509475423715 390.02480436870667Q986.7858623895947 398.3436050395186 986.7858623895947 409.67077702210213L986.7858623895947 409.67077702210213Q986.7858623895947 420.7101917487771 982.0509475423715 428.6627559120691Q977.3160326951484 436.61532007536107 969.1018710264849 440.8793594129156Q960.8615496072845 445.16955850100726 950.1883713881294 445.16955850100726ZM1044.9128280831299 428.6889156626062L1044.9128280831299 445.06491949885867Q1031.7544735629463 445.16955850100726 1024.351264160934 441.6118324279556Q1016.9480547589224 438.08026610544107 1013.9658431976878 431.0432932109492Q1010.9836316364534 424.0063203164574 1010.9836316364534 413.804017606971L1010.9836316364534 413.804017606971L1010.9836316364534 361.1967592767734L1003.5281027333671 361.1967592767734L1003.5281027333671 345.73634670932086L1010.9836316364534 345.73634670932086L1010.9836316364534 313.19361704111304L1027.6212329780774 313.19361704111304L1027.6212329780774 345.73634670932086L1043.5263613046614 345.73634670932086L1043.5263613046614 361.1967592767734L1027.6212329780774 361.1967592767734L1027.6212329780774 413.987135860731Q1027.6212329780774 418.5912519552685 1028.7199425006374 422.04433902617154Q1029.8448117737344 425.4712663465375 1033.5071768489347 427.2239696325262Q1037.1957016746724 428.97667291851485 1044.9128280831299 428.6889156626062L1044.9128280831299 428.6889156626062ZM1095.3226673682075 445.16955850100726L1095.3226673682075 445.16955850100726Q1079.7837755491435 445.16955850100726 1069.5553130891199 432.5605587421036Q1059.3530103796338 419.9777187337371 1059.3530103796338 394.5766009621698L1059.3530103796338 394.5766009621698Q1059.3530103796338 369.20164294113954 1069.5553130891199 356.59264318223586Q1079.7837755491435 344.0098031738694 1095.3226673682075 344.0098031738694L1095.3226673682075 344.0098031738694Q1110.8615591872713 344.0098031738694 1121.116181397832 356.59264318223586Q1131.3708036083926 369.20164294113954 1131.3708036083926 394.5766009621698L1131.3708036083926 394.5766009621698Q1131.3708036083926 419.9777187337371 1121.116181397832 432.5605587421036Q1110.8615591872713 445.16955850100726 1095.3226673682075 445.16955850100726ZM1095.3226673682075 429.08131192066344L1095.3226673682075 429.08131192066344Q1100.2930199702648 429.08131192066344 1104.504739806745 425.94214185620604Q1108.7426193937624 422.80297179174875 1111.3324346969398 415.3212831381254Q1113.89609024958 407.81343473396487 1113.89609024958 394.5766009621698L1113.89609024958 394.5766009621698Q1113.89609024958 381.3397671903746 1111.3324346969398 373.83191878621415Q1108.7426193937624 366.3502301325908 1104.504739806745 363.2110600681334Q1100.2930199702648 360.0980497542132 1095.3226673682075 360.0980497542132L1095.3226673682075 360.0980497542132Q1090.4307940177614 360.0980497542132 1086.1667546802069 363.2110600681334Q1081.9027153426523 366.3502301325908 1079.3129000394747 373.83191878621415Q1076.7492444868349 381.3397671903746 1076.7492444868349 394.5766009621698L1076.7492444868349 394.5766009621698Q1076.7492444868349 407.81343473396487 1079.3129000394747 415.3212831381254Q1081.9027153426523 422.80297179174875 1086.1667546802069 425.94214185620604Q1090.4307940177614 429.08131192066344 1095.3226673682075 429.08131192066344ZM1165.7708755647377 443.4168552150186L1148.5577597112965 443.4168552150186L1148.5577597112965 344.0098031738694L1159.3355769326 344.0098031738694L1162.63170550028 353.74123037368713Q1168.4391701195264 349.3463922834468 1175.1360662570355 346.75657698026953Q1181.8591221450815 344.19292142762936 1189.0268937922592 344.19292142762936L1189.0268937922592 344.19292142762936L1189.0268937922592 362.21698954772194Q1181.5713648891729 362.21698954772194 1175.790060020464 363.81273433048773Q1169.9825954012178 365.4346388637907 1165.7708755647377 368.28605167233945L1165.7708755647377 368.28605167233945L1165.7708755647377 443.4168552150186ZM1240.4308035977483 445.16955850100726L1240.4308035977483 445.16955850100726Q1229.23443036785 445.16955850100726 1220.3401151852213 439.10049637638974Q1211.4719597531289 433.0314342517722 1206.370808398386 421.5211440154286Q1201.2696570436428 410.0370135296222 1201.2696570436428 393.94876694927825L1201.2696570436428 393.94876694927825Q1201.2696570436428 377.2850058571172 1206.5016071510718 366.219431379905Q1211.7597170090376 355.12769715215575 1220.2616359336098 349.55567028774396Q1228.7635548581816 344.0098031738694 1238.5211418085364 344.0098031738694L1238.5211418085364 344.0098031738694Q1250.1099112964916 344.0098031738694 1257.643919451189 351.12525531997267Q1265.177927605887 358.26686721661315 1267.7939026596014 371.1636242314254Q1270.4360374638532 384.08654099677483 1267.1137491456357 401.4827751039759L1267.1137491456357 401.4827751039759L1218.639731400307 401.4827751039759Q1219.7384409228666 412.0513143209823 1223.4792852496785 418.22501544774843Q1227.193969825953 424.37255682397733 1232.268961430159 426.9885318776918Q1237.317793283828 429.63066668194347 1242.3666251374966 429.63066668194347L1242.3666251374966 429.63066668194347Q1247.2584984879427 429.63066668194347 1252.019573085703 427.9564426475662Q1256.8068074340008 426.3083783637261 1259.2919837350291 424.5556750777374L1259.2919837350291 424.5556750777374L1265.727282367167 438.5511416151097Q1261.3062845263894 441.1147971677499 1254.4262701351204 443.12909795911Q1247.5200959933145 445.16955850100726 1240.4308035977483 445.16955850100726ZM1238.1549053010167 360.0980497542132L1238.1549053010167 360.0980497542132Q1230.6993763979303 360.0980497542132 1225.3104677872784 366.6641471390366Q1219.921559176627 373.2564042743969 1218.639731400307 386.12700153867206L1218.639731400307 386.12700153867206L1251.7579755803317 386.12700153867206Q1252.4904485953716 375.8200598270371 1250.685425808309 370.1695537110139Q1248.9065627717828 364.51904759499064 1245.5842744535657 362.29546879933343Q1242.2881458858856 360.0980497542132 1238.1549053010167 360.0980497542132Z " fill="#000000" transform="matrix(0.6895386858250083,0,0,0.6895386858250082,0,44.753795694211775)"/></g></svg>
